# xmcd
#
# Track frame offsets:
#	150
#	13707
#	28222
#	41045
#	54080
#	65760
#	74377
#	85042
#	96575
#	107432
#	121327
#	131682
#	146025
#	159505
#	172467
#
# Disc length: 2495 seconds
#
# Revision: 0
# Processed by: cddbd v1.5PL3 Copyright (c) Steve Scherf et al.
# Submitted via: dBpowerAMP V4.0
#
DISCID=da09bd0f
DTITLE=Jandek - Staring At The Cellophane
DYEAR=1982
DGENRE=Blues
TTITLE0=Michael
TTITLE1=This is For You
TTITLE2=Riddles Riddling Me
TTITLE3=Basic Themes
TTITLE4=I See Lights
TTITLE5=Rather Be Blind
TTITLE6=Away
TTITLE7=Don't Get Too Upset
TTITLE8=A Letter
TTITLE9=Nevermore
TTITLE10=Sand I
TTITLE11=Nepoleon in Russia
TTITLE12=Split To The East
TTITLE13=Number 14
TTITLE14=Blood And Bone
EXTD=
EXTT0=
EXTT1=
EXTT2=
EXTT3=
EXTT4=
EXTT5=
EXTT6=
EXTT7=
EXTT8=
EXTT9=
EXTT10=
EXTT11=
EXTT12=
EXTT13=
EXTT14=
PLAYORDER=
